<?xml version="1.0" encoding="UTF-8" standalone="no"?>
<svg
   xmlns:dc="http://purl.org/dc/elements/1.1/"
   xmlns:cc="http://creativecommons.org/ns#"
   xmlns:rdf="http://www.w3.org/1999/02/22-rdf-syntax-ns#"
   xmlns:svg="http://www.w3.org/2000/svg"
   xmlns="http://www.w3.org/2000/svg"
   id="svg8"
   version="1.1"
   viewBox="0 0 272.621 118.935"
   height="118.935mm"
   width="272.621mm">
  <defs
     id="defs2" />
  <metadata
     id="metadata5">
    <rdf:RDF>
      <cc:Work
         rdf:about="">
        <dc:format>image/svg+xml</dc:format>
        <dc:type
           rdf:resource="http://purl.org/dc/dcmitype/StillImage" />
        <dc:title></dc:title>
      </cc:Work>
    </rdf:RDF>
  </metadata>
  <rect
     style="fill:#003399;fill-opacity:1;stroke:none;stroke-width:0.34497806;stroke-miterlimit:4;stroke-dasharray:none;stroke-opacity:1"
     id="rect900"
     width="272.62067"
     height="118.93494"
     x="0.1271155"
     y="0.026018677" />
  <path
     style="fill:#ffcc00;fill-opacity:1;stroke-width:0.16933332"
     d="m 137.29042,96.22053 c 0.72813,-0.60536 1.38451,-1.10066 1.45863,-1.10066 0.0741,0 0.73049,0.4953 1.45862,1.10066 0.72813,0.60537 1.38361,1.10067 1.45662,1.10067 0.2129,0 0.15904,-0.35116 -0.28703,-1.87136 -0.62608,-2.13375 -0.63268,-2.10988 0.92937,-3.36143 0.7442,-0.59626 1.35309,-1.14056 1.35309,-1.20955 0,-0.2418 -0.54858,-0.33099 -2.03586,-0.33099 -0.952,0 -1.54435,-0.0715 -1.62108,-0.19566 -0.0665,-0.10761 -0.33116,-0.91386 -0.58811,-1.79167 -0.25695,-0.8778 -0.51597,-1.6448 -0.57561,-1.70444 -0.17746,-0.17746 -0.35096,0.2342 -0.84647,2.00841 l -0.47013,1.68336 -1.63038,0.003 c -1.62503,0.003 -2.29791,0.16736 -1.96762,0.48185 0.0924,0.0879 0.70132,0.59344 1.35325,1.12334 0.65194,0.5299 1.23297,1.05167 1.2912,1.1595 0.0582,0.10783 -0.11304,0.95805 -0.38058,1.88938 -0.51407,1.78949 -0.56887,2.11667 -0.35453,2.11667 0.073,0 0.72849,-0.4953 1.45662,-1.10067 z m -15.51246,-4.42177 1.40158,-1.1179 0.49642,0.39917 c 1.82098,1.46424 2.39487,1.87316 2.49224,1.77579 0.0608,-0.0608 -0.0935,-0.83303 -0.34297,-1.71607 -0.24944,-0.88305 -0.45352,-1.75163 -0.45352,-1.93018 0,-0.19962 0.52351,-0.75775 1.35929,-1.44921 0.7476,-0.61851 1.3146,-1.19685 1.26,-1.28519 -0.0546,-0.0884 -0.85841,-0.16064 -1.78625,-0.16064 -1.94394,0 -1.71441,0.21116 -2.43874,-2.24366 -0.24045,-0.81492 -0.50771,-1.48167 -0.5939,-1.48167 -0.0862,0 -0.31541,0.55245 -0.50935,1.22767 -0.19395,0.67521 -0.44781,1.49436 -0.56415,1.82033 l -0.21152,0.59267 -1.68484,0.049 c -0.92666,0.0269 -1.74906,0.11317 -1.82755,0.19165 -0.0785,0.0785 0.50704,0.68541 1.30117,1.3487 l 1.44387,1.20598 -0.24468,0.84602 c -0.13457,0.46531 -0.35898,1.24086 -0.49868,1.72342 -0.28266,0.97639 -0.31606,1.32439 -0.127,1.323 0.0699,-5.1e-4 0.75771,-0.50399 1.52858,-1.11883 z m 31.62236,0.0199 c 0.7429,-0.60493 1.38883,-1.09988 1.4354,-1.09988 0.0466,0 0.69249,0.49495 1.43539,1.09988 0.7429,0.60494 1.40965,1.09988 1.48166,1.09988 0.21099,0 0.1563,-0.35431 -0.28884,-1.87136 -0.23087,-0.78685 -0.42137,-1.59525 -0.42333,-1.79644 -0.002,-0.25326 0.41467,-0.71181 1.35573,-1.49037 0.74761,-0.61851 1.31461,-1.19685 1.26001,-1.28519 -0.0546,-0.0884 -0.85841,-0.16064 -1.78625,-0.16064 -1.94394,0 -1.71442,0.21116 -2.43874,-2.24366 -0.24045,-0.81492 -0.50633,-1.48167 -0.59083,-1.48167 -0.0845,0 -0.3514,0.66675 -0.59311,1.48167 -0.72689,2.45073 -0.50114,2.24366 -2.44607,2.24366 -0.92783,0 -1.73099,0.0712 -1.78479,0.15827 -0.0538,0.0871 0.54711,0.69694 1.33536,1.35531 l 1.43317,1.19705 -0.24468,0.84602 c -0.13458,0.46531 -0.35898,1.24085 -0.49868,1.72342 -0.28426,0.98192 -0.31605,1.32393 -0.12306,1.32393 0.072,0 0.73876,-0.49494 1.48166,-1.09988 z M 109.26966,79.94632 c 0.75329,-0.61538 1.46497,-1.07903 1.5815,-1.03034 0.11654,0.0487 0.77497,0.55218 1.46318,1.11887 0.68821,0.56669 1.31686,1.03034 1.397,1.03034 0.22975,0 0.17607,-0.30981 -0.36422,-2.1019 -0.27834,-0.92322 -0.50607,-1.73378 -0.50607,-1.80126 0,-0.10042 1.02054,-0.97541 2.702,-2.31662 0.46793,-0.37324 -0.13291,-0.54819 -1.89223,-0.55096 l -1.64555,-0.003 -0.42044,-1.397 c -0.23125,-0.76835 -0.47139,-1.60987 -0.53366,-1.87004 -0.19287,-0.8059 -0.47531,-0.41644 -1.028,1.4175 l -0.53187,1.76487 -1.50013,0.0423 c -1.60828,0.0454 -2.2622,0.1442 -2.262,0.34193 7e-5,0.0681 0.64777,0.64623 1.43933,1.28479 0.79157,0.63855 1.43921,1.21919 1.43921,1.29031 0,0.0711 -0.2286,0.89879 -0.508,1.83929 -0.55149,1.85638 -0.58636,2.05938 -0.35383,2.05938 0.0848,0 0.7705,-0.50349 1.52378,-1.11886 z m 54.94476,0.0182 c 0.72813,-0.60536 1.38451,-1.10066 1.45863,-1.10066 0.0741,0 0.7305,0.4953 1.45863,1.10066 0.72812,0.60537 1.3836,1.10067 1.45662,1.10067 0.21289,0 0.15903,-0.35116 -0.28703,-1.87136 -0.62609,-2.13375 -0.63269,-2.10988 0.92936,-3.36143 0.7442,-0.59626 1.35308,-1.14056 1.35308,-1.20955 0,-0.2418 -0.54857,-0.33099 -2.03585,-0.33099 -0.95199,0 -1.54434,-0.0715 -1.62108,-0.19566 -0.0665,-0.10761 -0.33115,-0.91386 -0.5881,-1.79167 -0.25695,-0.8778 -0.51598,-1.6448 -0.57562,-1.70444 -0.17746,-0.17746 -0.35096,0.2342 -0.84647,2.00841 l -0.47013,1.68336 -1.63037,0.003 c -1.62504,0.003 -2.29792,0.16736 -1.96763,0.48185 0.0923,0.0879 0.70132,0.59344 1.35325,1.12334 0.65194,0.5299 1.23298,1.05167 1.2912,1.1595 0.0582,0.10783 -0.11304,0.95805 -0.38058,1.88938 -0.51407,1.78949 -0.56887,2.11667 -0.35453,2.11667 0.073,0 0.72849,-0.4953 1.45662,-1.10067 z M 105.62509,63.03119 c 0.72812,-0.60537 1.38451,-1.10067 1.45862,-1.10067 0.0741,0 0.7305,0.4953 1.45863,1.10067 0.72813,0.60537 1.38361,1.10067 1.45662,1.10067 0.21289,0 0.15903,-0.35117 -0.28703,-1.87137 -0.62608,-2.13374 -0.63268,-2.10987 0.92937,-3.36142 0.74419,-0.59626 1.35308,-1.14726 1.35308,-1.22444 0,-0.21166 -0.61066,-0.31136 -2.19479,-0.35831 l -1.43279,-0.0425 -0.21142,-0.59266 c -0.11628,-0.32597 -0.3701,-1.14512 -0.56405,-1.82034 -0.19394,-0.67521 -0.42237,-1.22766 -0.50762,-1.22766 -0.0852,0 -0.31367,0.55245 -0.50762,1.22766 -0.19394,0.67522 -0.44776,1.49437 -0.56404,1.82034 l -0.21142,0.59266 -1.43279,0.0425 c -1.60861,0.0477 -2.24465,0.15577 -2.16449,0.36784 0.0299,0.0791 0.62586,0.61847 1.32436,1.1986 0.6985,0.58013 1.31764,1.14126 1.37587,1.24694 0.0582,0.10569 -0.11304,0.95416 -0.38059,1.88549 -0.51406,1.78949 -0.56886,2.11667 -0.35452,2.11667 0.073,0 0.72849,-0.4953 1.45662,-1.10067 z m 63.33066,0 c 0.72813,-0.60537 1.38451,-1.10067 1.45863,-1.10067 0.0741,0 0.7305,0.4953 1.45863,1.10067 0.72812,0.60537 1.3836,1.10067 1.45662,1.10067 0.21289,0 0.15903,-0.35117 -0.28703,-1.87137 -0.62609,-2.13374 -0.63268,-2.10987 0.92936,-3.36142 0.7442,-0.59626 1.35309,-1.14726 1.35309,-1.22444 0,-0.21166 -0.61066,-0.31136 -2.19479,-0.35831 l -1.43279,-0.0425 -0.21142,-0.59266 c -0.11628,-0.32597 -0.3701,-1.14512 -0.56405,-1.82034 -0.19394,-0.67521 -0.42237,-1.22766 -0.50762,-1.22766 -0.0853,0 -0.31367,0.55245 -0.50762,1.22766 -0.19395,0.67522 -0.44777,1.49437 -0.56405,1.82034 l -0.21142,0.59266 -1.43279,0.0425 c -1.6086,0.0477 -2.24465,0.15577 -2.16448,0.36784 0.0299,0.0791 0.62586,0.61847 1.32436,1.1986 0.6985,0.58013 1.31764,1.14126 1.37586,1.24694 0.0582,0.10569 -0.11303,0.95416 -0.38058,1.88549 -0.51407,1.78949 -0.56887,2.11667 -0.35453,2.11667 0.073,0 0.7285,-0.4953 1.45662,-1.10067 z M 109.26966,45.57165 c 0.75329,-0.61538 1.46497,-1.07903 1.5815,-1.03034 0.11654,0.0487 0.77497,0.55218 1.46318,1.11886 0.68821,0.56669 1.31686,1.03034 1.397,1.03034 0.22975,0 0.17607,-0.30981 -0.36422,-2.1019 -0.27834,-0.92321 -0.50607,-1.73378 -0.50607,-1.80126 0,-0.10042 1.02054,-0.9754 2.702,-2.31662 0.46793,-0.37324 -0.13291,-0.54819 -1.89223,-0.55096 l -1.64555,-0.003 -0.42044,-1.397 c -0.23125,-0.76835 -0.47139,-1.60987 -0.53366,-1.87004 -0.19287,-0.80589 -0.47531,-0.41644 -1.028,1.41751 l -0.53187,1.76486 -1.50013,0.0423 c -1.60828,0.0453 -2.2622,0.1442 -2.262,0.34193 7e-5,0.0681 0.64777,0.64623 1.43933,1.28479 0.79157,0.63856 1.43921,1.2192 1.43921,1.29031 0,0.0711 -0.2286,0.8988 -0.508,1.83929 -0.55149,1.85639 -0.58636,2.05939 -0.35383,2.05939 0.0848,0 0.7705,-0.5035 1.52378,-1.11887 z m 54.94476,0.0182 c 0.72813,-0.60537 1.38451,-1.10067 1.45863,-1.10067 0.0741,0 0.7305,0.4953 1.45863,1.10067 0.72812,0.60536 1.3836,1.10066 1.45662,1.10066 0.21289,0 0.15903,-0.35116 -0.28703,-1.87136 -0.62609,-2.13374 -0.63269,-2.10988 0.92936,-3.36142 0.7442,-0.59627 1.35308,-1.14056 1.35308,-1.20955 0,-0.24181 -0.54857,-0.331 -2.03585,-0.331 -0.95199,0 -1.54434,-0.0715 -1.62108,-0.19566 -0.0665,-0.10761 -0.33115,-0.91386 -0.5881,-1.79166 -0.25695,-0.87781 -0.51598,-1.64481 -0.57562,-1.70444 -0.17746,-0.17747 -0.35096,0.23419 -0.84647,2.0084 l -0.47013,1.68336 -1.63037,0.003 c -1.62504,0.003 -2.29792,0.16737 -1.96763,0.48186 0.0923,0.0879 0.70132,0.59344 1.35325,1.12333 0.65194,0.5299 1.23298,1.05168 1.2912,1.1595 0.0582,0.10783 -0.11304,0.95805 -0.38058,1.88938 -0.51407,1.7895 -0.56887,2.11667 -0.35453,2.11667 0.073,0 0.72849,-0.4953 1.45662,-1.10067 z M 121.7212,34.23666 c 0.73333,-0.60969 1.43234,-1.07053 1.55337,-1.02409 0.12103,0.0464 0.7958,0.55699 1.49948,1.13453 0.70369,0.57755 1.33011,0.99941 1.39206,0.93746 0.0619,-0.0619 -0.0915,-0.83512 -0.34088,-1.71817 -0.24944,-0.88304 -0.4528,-1.77751 -0.45193,-1.98771 0.001,-0.27342 0.3866,-0.69065 1.35466,-1.46629 0.7442,-0.59626 1.35309,-1.14056 1.35309,-1.20955 0,-0.24224 -0.54957,-0.33099 -2.04948,-0.33099 -1.74385,0 -1.54561,0.19631 -2.26556,-2.24367 -0.24045,-0.81492 -0.50771,-1.48167 -0.5939,-1.48167 -0.13836,0 -0.31072,0.50374 -1.05737,3.09034 l -0.1833,0.635 -1.6242,0.003 c -1.4323,0.002 -2.28328,0.16595 -2.04262,0.39286 0.0439,0.0414 0.65126,0.54958 1.34976,1.12938 0.6985,0.57981 1.31764,1.14066 1.37586,1.24634 0.0582,0.10569 -0.11304,0.95416 -0.38058,1.88549 -0.51407,1.78949 -0.56887,2.11667 -0.35453,2.11667 0.073,0 0.73275,-0.49884 1.46607,-1.10853 z m 31.65589,0.008 c 0.72813,-0.60537 1.38451,-1.10067 1.45863,-1.10067 0.0741,0 0.73049,0.4953 1.45862,1.10067 0.72813,0.60536 1.38361,1.10066 1.45662,1.10066 0.2129,0 0.15904,-0.35116 -0.28703,-1.87136 -0.62608,-2.13374 -0.63268,-2.10988 0.92937,-3.36142 0.74419,-0.59627 1.35308,-1.14726 1.35308,-1.22444 0,-0.21167 -0.61066,-0.31136 -2.19479,-0.35831 l -1.43279,-0.0425 -0.21142,-0.59267 c -0.11628,-0.32597 -0.3701,-1.14512 -0.56404,-1.82033 -0.19395,-0.67522 -0.42238,-1.22767 -0.50762,-1.22767 -0.0852,0 -0.31368,0.55245 -0.50763,1.22767 -0.19394,0.67521 -0.44776,1.49436 -0.56404,1.82033 l -0.21142,0.59267 -1.43279,0.0425 c -1.60861,0.0477 -2.24465,0.15577 -2.16449,0.36784 0.0299,0.0791 0.62587,0.61847 1.32437,1.1986 0.6985,0.58013 1.31763,1.14125 1.37586,1.24694 0.0582,0.10568 -0.11304,0.95415 -0.38058,1.88549 -0.51407,1.78949 -0.56887,2.11666 -0.35453,2.11666 0.073,0 0.72849,-0.4953 1.45662,-1.10066 z m -16.08667,-4.74134 c 0.72813,-0.60536 1.38451,-1.10066 1.45863,-1.10066 0.0741,0 0.73049,0.4953 1.45862,1.10066 0.72813,0.60537 1.38361,1.10067 1.45662,1.10067 0.2129,0 0.15904,-0.35116 -0.28703,-1.87136 -0.62608,-2.13375 -0.63268,-2.10988 0.92937,-3.36143 0.7442,-0.59626 1.35309,-1.14056 1.35309,-1.20955 0,-0.24181 -0.54858,-0.33099 -2.03586,-0.33099 -0.952,0 -1.54435,-0.0715 -1.62108,-0.19566 -0.0665,-0.10761 -0.33116,-0.91386 -0.58811,-1.79167 -0.25695,-0.8778 -0.51597,-1.6448 -0.57561,-1.70444 -0.17746,-0.17746 -0.35096,0.2342 -0.84647,2.00841 l -0.47013,1.68336 -1.63038,0.003 c -1.62503,0.003 -2.29791,0.16736 -1.96762,0.48185 0.0924,0.0879 0.70132,0.59344 1.35325,1.12334 0.65194,0.5299 1.23297,1.05167 1.2912,1.1595 0.0582,0.10783 -0.11304,0.95805 -0.38058,1.88938 -0.51407,1.78949 -0.56887,2.11667 -0.35453,2.11667 0.073,0 0.72849,-0.4953 1.45662,-1.10067 z"
     id="path898" />
</svg>
