<?xml version="1.0" encoding="UTF-8" standalone="no"?>
<svg
   xmlns:dc="http://purl.org/dc/elements/1.1/"
   xmlns:cc="http://creativecommons.org/ns#"
   xmlns:rdf="http://www.w3.org/1999/02/22-rdf-syntax-ns#"
   xmlns:svg="http://www.w3.org/2000/svg"
   xmlns="http://www.w3.org/2000/svg"
   width="272.621mm"
   height="118.935mm"
   viewBox="0 0 272.621 118.935"
   version="1.1"
   id="svg8">
  <defs
     id="defs2" />
  <metadata
     id="metadata5">
    <rdf:RDF>
      <cc:Work
         rdf:about="">
        <dc:format>image/svg+xml</dc:format>
        <dc:type
           rdf:resource="http://purl.org/dc/dcmitype/StillImage" />
        <dc:title></dc:title>
      </cc:Work>
    </rdf:RDF>
  </metadata>
  <g
     id="layer1"
     transform="translate(0,-178.065)">
    <rect
       style="fill:#003399;fill-opacity:1;stroke:none;stroke-width:0.34497806;stroke-miterlimit:4;stroke-dasharray:none;stroke-opacity:1"
       id="rect900"
       width="272.62067"
       height="118.93494"
       x="0.1271155"
       y="178.09102" />
    <path
       style="fill:#ffcc00;fill-opacity:1;stroke-width:0.16933332"
       d="m 137.29042,274.28553 c 0.72813,-0.60536 1.38451,-1.10066 1.45863,-1.10066 0.0741,0 0.73049,0.4953 1.45862,1.10066 0.72813,0.60537 1.38361,1.10067 1.45662,1.10067 0.2129,0 0.15904,-0.35116 -0.28703,-1.87136 -0.62608,-2.13375 -0.63268,-2.10988 0.92937,-3.36143 0.7442,-0.59626 1.35309,-1.14056 1.35309,-1.20955 0,-0.2418 -0.54858,-0.33099 -2.03586,-0.33099 -0.952,0 -1.54435,-0.0715 -1.62108,-0.19566 -0.0665,-0.10761 -0.33116,-0.91386 -0.58811,-1.79167 -0.25695,-0.8778 -0.51597,-1.6448 -0.57561,-1.70444 -0.17746,-0.17746 -0.35096,0.2342 -0.84647,2.00841 l -0.47013,1.68336 -1.63038,0.003 c -1.62503,0.003 -2.29791,0.16736 -1.96762,0.48185 0.0924,0.0879 0.70132,0.59344 1.35325,1.12334 0.65194,0.5299 1.23297,1.05167 1.2912,1.1595 0.0582,0.10783 -0.11304,0.95805 -0.38058,1.88938 -0.51407,1.78949 -0.56887,2.11667 -0.35453,2.11667 0.073,0 0.72849,-0.4953 1.45662,-1.10067 z m -15.51246,-4.42177 1.40158,-1.1179 0.49642,0.39917 c 1.82098,1.46424 2.39487,1.87316 2.49224,1.77579 0.0608,-0.0608 -0.0935,-0.83303 -0.34297,-1.71607 -0.24944,-0.88305 -0.45352,-1.75163 -0.45352,-1.93018 0,-0.19962 0.52351,-0.75775 1.35929,-1.44921 0.7476,-0.61851 1.3146,-1.19685 1.26,-1.28519 -0.0546,-0.0884 -0.85841,-0.16064 -1.78625,-0.16064 -1.94394,0 -1.71441,0.21116 -2.43874,-2.24366 -0.24045,-0.81492 -0.50771,-1.48167 -0.5939,-1.48167 -0.0862,0 -0.31541,0.55245 -0.50935,1.22767 -0.19395,0.67521 -0.44781,1.49436 -0.56415,1.82033 l -0.21152,0.59267 -1.68484,0.049 c -0.92666,0.0269 -1.74906,0.11317 -1.82755,0.19165 -0.0785,0.0785 0.50704,0.68541 1.30117,1.3487 l 1.44387,1.20598 -0.24468,0.84602 c -0.13457,0.46531 -0.35898,1.24086 -0.49868,1.72342 -0.28266,0.97639 -0.31606,1.32439 -0.127,1.323 0.0699,-5.1e-4 0.75771,-0.50399 1.52858,-1.11883 z m 31.62236,0.0199 c 0.7429,-0.60493 1.38883,-1.09988 1.4354,-1.09988 0.0466,0 0.69249,0.49495 1.43539,1.09988 0.7429,0.60494 1.40965,1.09988 1.48166,1.09988 0.21099,0 0.1563,-0.35431 -0.28884,-1.87136 -0.23087,-0.78685 -0.42137,-1.59525 -0.42333,-1.79644 -0.002,-0.25326 0.41467,-0.71181 1.35573,-1.49037 0.74761,-0.61851 1.31461,-1.19685 1.26001,-1.28519 -0.0546,-0.0884 -0.85841,-0.16064 -1.78625,-0.16064 -1.94394,0 -1.71442,0.21116 -2.43874,-2.24366 -0.24045,-0.81492 -0.50633,-1.48167 -0.59083,-1.48167 -0.0845,0 -0.3514,0.66675 -0.59311,1.48167 -0.72689,2.45073 -0.50114,2.24366 -2.44607,2.24366 -0.92783,0 -1.73099,0.0712 -1.78479,0.15827 -0.0538,0.0871 0.54711,0.69694 1.33536,1.35531 l 1.43317,1.19705 -0.24468,0.84602 c -0.13458,0.46531 -0.35898,1.24085 -0.49868,1.72342 -0.28426,0.98192 -0.31605,1.32393 -0.12306,1.32393 0.072,0 0.73876,-0.49494 1.48166,-1.09988 z m -44.13066,-11.87234 c 0.75329,-0.61538 1.46497,-1.07903 1.5815,-1.03034 0.11654,0.0487 0.77497,0.55218 1.46318,1.11887 0.68821,0.56669 1.31686,1.03034 1.397,1.03034 0.22975,0 0.17607,-0.30981 -0.36422,-2.1019 -0.27834,-0.92322 -0.50607,-1.73378 -0.50607,-1.80126 0,-0.10042 1.02054,-0.97541 2.702,-2.31662 0.46793,-0.37324 -0.13291,-0.54819 -1.89223,-0.55096 l -1.64555,-0.003 -0.42044,-1.397 c -0.23125,-0.76835 -0.47139,-1.60987 -0.53366,-1.87004 -0.19287,-0.8059 -0.47531,-0.41644 -1.028,1.4175 l -0.53187,1.76487 -1.50013,0.0423 c -1.60828,0.0454 -2.2622,0.1442 -2.262,0.34193 7e-5,0.0681 0.64777,0.64623 1.43933,1.28479 0.79157,0.63855 1.43921,1.21919 1.43921,1.29031 0,0.0711 -0.2286,0.89879 -0.508,1.83929 -0.55149,1.85638 -0.58636,2.05938 -0.35383,2.05938 0.0848,0 0.7705,-0.50349 1.52378,-1.11886 z m 54.94476,0.0182 c 0.72813,-0.60536 1.38451,-1.10066 1.45863,-1.10066 0.0741,0 0.7305,0.4953 1.45863,1.10066 0.72812,0.60537 1.3836,1.10067 1.45662,1.10067 0.21289,0 0.15903,-0.35116 -0.28703,-1.87136 -0.62609,-2.13375 -0.63269,-2.10988 0.92936,-3.36143 0.7442,-0.59626 1.35308,-1.14056 1.35308,-1.20955 0,-0.2418 -0.54857,-0.33099 -2.03585,-0.33099 -0.95199,0 -1.54434,-0.0715 -1.62108,-0.19566 -0.0665,-0.10761 -0.33115,-0.91386 -0.5881,-1.79167 -0.25695,-0.8778 -0.51598,-1.6448 -0.57562,-1.70444 -0.17746,-0.17746 -0.35096,0.2342 -0.84647,2.00841 l -0.47013,1.68336 -1.63037,0.003 c -1.62504,0.003 -2.29792,0.16736 -1.96763,0.48185 0.0923,0.0879 0.70132,0.59344 1.35325,1.12334 0.65194,0.5299 1.23298,1.05167 1.2912,1.1595 0.0582,0.10783 -0.11304,0.95805 -0.38058,1.88938 -0.51407,1.78949 -0.56887,2.11667 -0.35453,2.11667 0.073,0 0.72849,-0.4953 1.45662,-1.10067 z m -36.27673,-5.17712 c 1.09317,-0.48072 1.50387,-0.56293 3.38695,-0.67797 2.35579,-0.14392 2.87296,-0.31585 3.89545,-1.29501 0.34085,-0.32639 0.69324,-0.548 0.78311,-0.49246 0.0899,0.0555 0.19848,0.52416 0.24138,1.0414 0.0848,1.02221 0.29531,1.37138 0.72703,1.20571 0.24687,-0.0947 0.26416,-0.3714 0.15742,-2.52015 -0.1696,-3.41452 -0.42634,-3.94075 -1.06629,-2.1856 -0.19856,0.54457 -0.58826,1.30382 -0.866,1.68723 -0.86228,1.19034 -1.1338,1.29009 -3.80607,1.39814 -2.31563,0.0936 -2.42514,0.11538 -4.15629,0.8255 -0.9779,0.40113 -1.8923,0.83876 -2.032,0.97251 -0.22508,0.2155 -0.21544,0.27231 0.0847,0.49892 0.44517,0.33616 1.10268,0.2225 2.65064,-0.45822 z m 17.94601,-3.33188 c 0.12438,-0.31545 0.14037,-1.20307 0.0496,-2.75166 -0.0737,-1.2573 -0.14483,-3.75471 -0.15804,-5.54979 -0.017,-2.31037 -0.0842,-3.32399 -0.23016,-3.46991 -0.48267,-0.48267 -0.86354,0.9086 -0.9858,3.60103 -0.0962,2.11839 0.31121,7.38884 0.6375,8.24703 0.19789,0.5205 0.46313,0.49088 0.68692,-0.0767 z m -5.14041,-3.70663 c 2.5101,-1.49783 2.82914,-1.93331 3.1771,-4.3367 0.0959,-0.66227 0.0703,-0.80433 -0.14477,-0.80433 -0.17221,0 -0.35742,0.33095 -0.54361,0.97143 -0.44742,1.53907 -0.67648,1.8449 -1.93021,2.57712 -0.64415,0.3762 -1.39524,0.87254 -1.66909,1.10296 -1.05207,0.88526 -2.03832,0.88341 -2.44292,-0.005 -0.27005,-0.59269 -0.0209,-0.9561 0.81552,-1.18972 0.4505,-0.12582 0.67505,-0.29136 0.70957,-0.52312 0.0756,-0.50751 -0.40496,-0.79787 -1.3205,-0.79787 -1.00154,0 -1.42326,0.29785 -1.27641,0.9015 0.058,0.23849 0.17593,0.75632 0.26202,1.15071 0.30127,1.38016 1.20974,2.17567 2.27292,1.99029 0.27309,-0.0476 1.21376,-0.51457 2.09038,-1.03767 z m -35.1182,-4.7177 c 0.72812,-0.60537 1.38451,-1.10067 1.45862,-1.10067 0.0741,0 0.7305,0.4953 1.45863,1.10067 0.72813,0.60537 1.38361,1.10067 1.45662,1.10067 0.21289,0 0.15903,-0.35117 -0.28703,-1.87137 -0.62608,-2.13374 -0.63268,-2.10987 0.92937,-3.36142 0.74419,-0.59626 1.35308,-1.14726 1.35308,-1.22444 0,-0.21166 -0.61066,-0.31136 -2.19479,-0.35831 l -1.43279,-0.0425 -0.21142,-0.59266 c -0.11628,-0.32597 -0.3701,-1.14512 -0.56405,-1.82034 -0.19394,-0.67521 -0.42237,-1.22766 -0.50762,-1.22766 -0.0852,0 -0.31367,0.55245 -0.50762,1.22766 -0.19394,0.67522 -0.44776,1.49437 -0.56404,1.82034 l -0.21142,0.59266 -1.43279,0.0425 c -1.60861,0.0477 -2.24465,0.15577 -2.16449,0.36784 0.0299,0.0791 0.62586,0.61847 1.32436,1.1986 0.6985,0.58013 1.31764,1.14126 1.37587,1.24694 0.0582,0.10569 -0.11304,0.95416 -0.38059,1.88549 -0.51406,1.78949 -0.56886,2.11667 -0.35452,2.11667 0.073,0 0.72849,-0.4953 1.45662,-1.10067 z m 63.33066,0 c 0.72813,-0.60537 1.38451,-1.10067 1.45863,-1.10067 0.0741,0 0.7305,0.4953 1.45863,1.10067 0.72812,0.60537 1.3836,1.10067 1.45662,1.10067 0.21289,0 0.15903,-0.35117 -0.28703,-1.87137 -0.62609,-2.13374 -0.63268,-2.10987 0.92936,-3.36142 0.7442,-0.59626 1.35309,-1.14726 1.35309,-1.22444 0,-0.21166 -0.61066,-0.31136 -2.19479,-0.35831 l -1.43279,-0.0425 -0.21142,-0.59266 c -0.11628,-0.32597 -0.3701,-1.14512 -0.56405,-1.82034 -0.19394,-0.67521 -0.42237,-1.22766 -0.50762,-1.22766 -0.0853,0 -0.31367,0.55245 -0.50762,1.22766 -0.19395,0.67522 -0.44777,1.49437 -0.56405,1.82034 l -0.21142,0.59266 -1.43279,0.0425 c -1.6086,0.0477 -2.24465,0.15577 -2.16448,0.36784 0.0299,0.0791 0.62586,0.61847 1.32436,1.1986 0.6985,0.58013 1.31764,1.14126 1.37586,1.24694 0.0582,0.10569 -0.11303,0.95416 -0.38058,1.88549 -0.51407,1.78949 -0.56887,2.11667 -0.35453,2.11667 0.073,0 0.7285,-0.4953 1.45662,-1.10067 z m -31.9267,-1.34328 c 0.13645,-0.70381 -0.1559,-1.44887 -0.67355,-1.71655 -0.5942,-0.30727 -0.57885,-0.56504 0.11992,-2.0147 0.60819,-1.26175 0.92091,-1.58745 1.83981,-1.91621 1.04525,-0.37396 1.20759,-0.71393 0.34092,-0.71393 -1.60892,0 -2.6563,-2.85401 -1.83322,-4.99533 0.1432,-0.37253 0.30446,-0.86618 0.35837,-1.097 0.0954,-0.40827 0.087,-0.41239 -0.30591,-0.15148 -0.22216,0.14751 -0.57552,0.60306 -0.78525,1.01234 -0.61062,1.19159 -0.62525,1.19938 -1.52731,0.81271 -1.20384,-0.51603 -2.16845,-1.39531 -2.68181,-2.44457 -0.4093,-0.83658 -0.44773,-1.06802 -0.37225,-2.24178 0.052,-0.80849 0.22371,-1.62556 0.44915,-2.13719 0.40481,-0.91871 0.35782,-1.15666 -0.13952,-0.70658 -0.88663,0.80239 -1.42583,2.94747 -1.16269,4.62548 0.29367,1.87274 1.30276,3.12591 3.58591,4.45332 l 1.03416,0.60125 0.29279,1.41213 c 0.16104,0.77668 0.32405,1.44339 0.36226,1.48159 0.15727,0.15728 -0.35243,1.66111 -0.56301,1.66111 -0.12453,0 -0.4383,-0.52305 -0.69726,-1.16235 -0.57703,-1.4245 -0.92219,-1.80443 -2.27782,-2.5073 -0.93654,-0.48557 -1.09342,-0.52126 -1.35114,-0.30737 -0.7412,0.61514 0.30683,4.074 1.51322,4.99416 0.32673,0.24921 0.77825,0.4222 1.10199,0.4222 0.59952,0 0.64068,-0.27505 0.0868,-0.58015 -1.03086,-0.56786 -1.42225,-0.99016 -1.76386,-1.90321 -0.67332,-1.79961 -0.16543,-2.45919 0.99787,-1.2959 0.49963,0.49964 0.69627,0.87036 0.84714,1.59711 0.13813,0.66533 0.34566,1.08936 0.69875,1.42763 0.32924,0.31544 0.46918,0.58544 0.40622,0.7838 -0.17519,0.55199 0.59312,2.30215 1.17391,2.67408 0.59879,0.38345 0.84143,0.36581 0.92539,-0.0673 z m 6.01516,-0.10834 c 0.50197,-0.39485 0.61661,-1.24075 0.19032,-1.40433 -0.36167,-0.13878 -1.30066,0.0633 -1.63392,0.35165 -0.31572,0.27317 -0.54351,0.996 -0.39142,1.24209 0.1846,0.29868 1.37007,0.17631 1.83502,-0.18941 z m 5.96288,-2.7834 c 1.52675,-1.05151 2.60131,-2.90664 2.60757,-4.50174 0.005,-1.21971 -0.35494,-1.59916 -1.49597,-1.57797 -1.21808,0.0226 -3.91897,1.56961 -3.91897,2.24467 0,0.41799 0.41543,0.33024 1.85187,-0.39119 0.84042,-0.42208 1.64117,-0.76742 1.77945,-0.76742 0.66386,0 0.70404,1.31613 0.0782,2.56171 -0.40623,0.8085 -1.6871,1.92127 -2.62286,2.27864 -1.0697,0.40852 -0.96153,0.70651 0.26654,0.73428 0.41401,0.009 0.84985,-0.16477 1.45417,-0.58098 z m -2.84285,-0.75879 c 0.25234,-0.18544 0.80171,-0.50929 1.22081,-0.71967 0.6006,-0.3015 0.86015,-0.57727 1.22541,-1.302 0.49877,-0.98966 0.49917,-1.11434 0.003,-0.95687 -0.83372,0.26461 -1.94525,1.16947 -2.49797,2.03352 -0.81844,1.27943 -0.8034,1.57118 0.0487,0.94502 z m -1.4534,-1.99119 c 0.74953,-1.33656 1.98586,-2.51066 3.6917,-3.50585 1.85835,-1.08418 3.0782,-2.30374 3.77234,-3.77145 0.48808,-1.03201 0.54178,-1.29987 0.53547,-2.67103 -0.007,-1.61375 -0.45172,-3.57102 -1.09829,-4.8384 -0.49887,-0.97786 -0.68042,-0.80931 -0.33253,0.30873 1.10681,3.55699 0.60894,6.33215 -1.46321,8.15614 -0.79067,0.69598 -2.45172,1.60036 -3.30809,1.80114 -0.40957,0.096 -0.46994,0.0467 -0.62352,-0.50952 -0.25185,-0.91212 -0.97086,-2.05204 -1.55806,-2.47017 -0.28441,-0.20251 -0.55192,-0.33338 -0.59449,-0.29081 -0.0426,0.0426 0.12573,0.4408 0.37399,0.88498 0.57022,1.02024 0.78966,2.15187 0.57318,2.95581 -0.0908,0.33708 -0.44376,1.06854 -0.78443,1.62548 -1.2805,2.0934 -1.21772,1.80396 -0.56238,2.59285 0.31966,0.38482 0.63769,0.70103 0.70675,0.70271 0.0691,0.002 0.37126,-0.43509 0.67157,-0.97061 z m -35.44118,-10.47454 c 0.75329,-0.61538 1.46497,-1.07903 1.5815,-1.03034 0.11654,0.0487 0.77497,0.55218 1.46318,1.11886 0.68821,0.56669 1.31686,1.03034 1.397,1.03034 0.22975,0 0.17607,-0.30981 -0.36422,-2.1019 -0.27834,-0.92321 -0.50607,-1.73378 -0.50607,-1.80126 0,-0.10042 1.02054,-0.9754 2.702,-2.31662 0.46793,-0.37324 -0.13291,-0.54819 -1.89223,-0.55096 l -1.64555,-0.003 -0.42044,-1.397 c -0.23125,-0.76835 -0.47139,-1.60987 -0.53366,-1.87004 -0.19287,-0.80589 -0.47531,-0.41644 -1.028,1.41751 l -0.53187,1.76486 -1.50013,0.0423 c -1.60828,0.0453 -2.2622,0.1442 -2.262,0.34193 7e-5,0.0681 0.64777,0.64623 1.43933,1.28479 0.79157,0.63856 1.43921,1.2192 1.43921,1.29031 0,0.0711 -0.2286,0.8988 -0.508,1.83929 -0.55149,1.85639 -0.58636,2.05939 -0.35383,2.05939 0.0848,0 0.7705,-0.5035 1.52378,-1.11887 z m 54.94476,0.0182 c 0.72813,-0.60537 1.38451,-1.10067 1.45863,-1.10067 0.0741,0 0.7305,0.4953 1.45863,1.10067 0.72812,0.60536 1.3836,1.10066 1.45662,1.10066 0.21289,0 0.15903,-0.35116 -0.28703,-1.87136 -0.62609,-2.13374 -0.63269,-2.10988 0.92936,-3.36142 0.7442,-0.59627 1.35308,-1.14056 1.35308,-1.20955 0,-0.24181 -0.54857,-0.331 -2.03585,-0.331 -0.95199,0 -1.54434,-0.0715 -1.62108,-0.19566 -0.0665,-0.10761 -0.33115,-0.91386 -0.5881,-1.79166 -0.25695,-0.87781 -0.51598,-1.64481 -0.57562,-1.70444 -0.17746,-0.17747 -0.35096,0.23419 -0.84647,2.0084 l -0.47013,1.68336 -1.63037,0.003 c -1.62504,0.003 -2.29792,0.16737 -1.96763,0.48186 0.0923,0.0879 0.70132,0.59344 1.35325,1.12333 0.65194,0.5299 1.23298,1.05168 1.2912,1.1595 0.0582,0.10783 -0.11304,0.95805 -0.38058,1.88938 -0.51407,1.7895 -0.56887,2.11667 -0.35453,2.11667 0.073,0 0.72849,-0.4953 1.45662,-1.10067 z M 121.7212,212.30166 c 0.73333,-0.60969 1.43234,-1.07053 1.55337,-1.02409 0.12103,0.0464 0.7958,0.55699 1.49948,1.13453 0.70369,0.57755 1.33011,0.99941 1.39206,0.93746 0.0619,-0.0619 -0.0915,-0.83512 -0.34088,-1.71817 -0.24944,-0.88304 -0.4528,-1.77751 -0.45193,-1.98771 0.001,-0.27342 0.3866,-0.69065 1.35466,-1.46629 0.7442,-0.59626 1.35309,-1.14056 1.35309,-1.20955 0,-0.24224 -0.54957,-0.33099 -2.04948,-0.33099 -1.74385,0 -1.54561,0.19631 -2.26556,-2.24367 -0.24045,-0.81492 -0.50771,-1.48167 -0.5939,-1.48167 -0.13836,0 -0.31072,0.50374 -1.05737,3.09034 l -0.1833,0.635 -1.6242,0.003 c -1.4323,0.002 -2.28328,0.16595 -2.04262,0.39286 0.0439,0.0414 0.65126,0.54958 1.34976,1.12938 0.6985,0.57981 1.31764,1.14066 1.37586,1.24634 0.0582,0.10569 -0.11304,0.95416 -0.38058,1.88549 -0.51407,1.78949 -0.56887,2.11667 -0.35453,2.11667 0.073,0 0.73275,-0.49884 1.46607,-1.10853 z m 31.65589,0.008 c 0.72813,-0.60537 1.38451,-1.10067 1.45863,-1.10067 0.0741,0 0.73049,0.4953 1.45862,1.10067 0.72813,0.60536 1.38361,1.10066 1.45662,1.10066 0.2129,0 0.15904,-0.35116 -0.28703,-1.87136 -0.62608,-2.13374 -0.63268,-2.10988 0.92937,-3.36142 0.74419,-0.59627 1.35308,-1.14726 1.35308,-1.22444 0,-0.21167 -0.61066,-0.31136 -2.19479,-0.35831 l -1.43279,-0.0425 -0.21142,-0.59267 c -0.11628,-0.32597 -0.3701,-1.14512 -0.56404,-1.82033 -0.19395,-0.67522 -0.42238,-1.22767 -0.50762,-1.22767 -0.0852,0 -0.31368,0.55245 -0.50763,1.22767 -0.19394,0.67521 -0.44776,1.49436 -0.56404,1.82033 l -0.21142,0.59267 -1.43279,0.0425 c -1.60861,0.0477 -2.24465,0.15577 -2.16449,0.36784 0.0299,0.0791 0.62587,0.61847 1.32437,1.1986 0.6985,0.58013 1.31763,1.14125 1.37586,1.24694 0.0582,0.10568 -0.11304,0.95415 -0.38058,1.88549 -0.51407,1.78949 -0.56887,2.11666 -0.35453,2.11666 0.073,0 0.72849,-0.4953 1.45662,-1.10066 z m -16.08667,-4.74134 c 0.72813,-0.60536 1.38451,-1.10066 1.45863,-1.10066 0.0741,0 0.73049,0.4953 1.45862,1.10066 0.72813,0.60537 1.38361,1.10067 1.45662,1.10067 0.2129,0 0.15904,-0.35116 -0.28703,-1.87136 -0.62608,-2.13375 -0.63268,-2.10988 0.92937,-3.36143 0.7442,-0.59626 1.35309,-1.14056 1.35309,-1.20955 0,-0.24181 -0.54858,-0.33099 -2.03586,-0.33099 -0.952,0 -1.54435,-0.0715 -1.62108,-0.19566 -0.0665,-0.10761 -0.33116,-0.91386 -0.58811,-1.79167 -0.25695,-0.8778 -0.51597,-1.6448 -0.57561,-1.70444 -0.17746,-0.17746 -0.35096,0.2342 -0.84647,2.00841 l -0.47013,1.68336 -1.63038,0.003 c -1.62503,0.003 -2.29791,0.16736 -1.96762,0.48185 0.0924,0.0879 0.70132,0.59344 1.35325,1.12334 0.65194,0.5299 1.23297,1.05167 1.2912,1.1595 0.0582,0.10783 -0.11304,0.95805 -0.38058,1.88938 -0.51407,1.78949 -0.56887,2.11667 -0.35453,2.11667 0.073,0 0.72849,-0.4953 1.45662,-1.10067 z"
       id="path898" />
  </g>
</svg>
